HIERARCHY
ROOT Hips
{
	OFFSET 0.000000 0.000000 0.000000 
	CHANNELS 6 Xposition Yposition Zposition Zrotation Yrotation Xrotation
	JOINT LeftUpLeg
	{
		OFFSET 1.363060 -1.794630 0.839290 
		CHANNELS 3 Zrotation Yrotation Xrotation
		JOINT LeftLeg
		{
			OFFSET 2.448110 -6.726130 0.000000 
			CHANNELS 3 Zrotation Yrotation Xrotation
			JOINT LeftFoot
			{
				OFFSET 2.562200 -7.039590 0.000000 
				CHANNELS 3 Zrotation Yrotation Xrotation
				JOINT LeftToeBase
				{
					OFFSET 0.157640 -0.433110 2.322550 
					CHANNELS 3 Zrotation Yrotation Xrotation
					End Site
					{
						OFFSET 0.000000 0.000000 0.000000 
					}
				}
			}
		}
	}
	JOINT RightUpLeg
	{
		OFFSET -1.305520 -1.794630 0.839290 
		CHANNELS 3 Zrotation Yrotation Xrotation
		JOINT RightLeg
		{
			OFFSET -2.542530 -6.985550 0.000000 
			CHANNELS 3 Zrotation Yrotation Xrotation
			JOINT RightFoot
			{
				OFFSET -2.568260 -7.056230 0.000000 
				CHANNELS 3 Zrotation Yrotation Xrotation
				JOINT RightToeBase
				{
					OFFSET -0.164730 -0.452590 2.363150 
					CHANNELS 3 Zrotation Yrotation Xrotation
					End Site
					{
						OFFSET 0.000000 0.000000 0.000000 
					}
				}
			}
		}
	}
	JOINT Spine
	{
		OFFSET 0.028270 2.035590 -0.193380 
		CHANNELS 3 Zrotation Yrotation Xrotation
		JOINT Spine1
		{
			OFFSET 0.056720 2.048850 -0.042750 
			CHANNELS 3 Zrotation Yrotation Xrotation
			JOINT Neck1
			{
				OFFSET -0.054170 1.746240 0.172020 
				CHANNELS 3 Zrotation Yrotation Xrotation
				JOINT Head
				{
					OFFSET 0.104070 1.761360 -0.123970 
					CHANNELS 3 Zrotation Yrotation Xrotation
					End Site
					{
						OFFSET 0.000000 0.000000 0.000000 
					}
				}
			}
			JOINT LeftArm
			{
				OFFSET 3.362410 1.200890 -0.311210 
				CHANNELS 3 Zrotation Yrotation Xrotation
				JOINT LeftForeArm
				{
					OFFSET 4.983000 -0.000000 -0.000000 
					CHANNELS 3 Zrotation Yrotation Xrotation
					JOINT LeftHand
					{
						OFFSET 3.483560 -0.000000 -0.000000 
						CHANNELS 3 Zrotation Yrotation Xrotation
						JOINT LeftHandIndex1
						{
							OFFSET 0.715260 -0.000000 -0.000000 
							CHANNELS 3 Zrotation Yrotation Xrotation
							End Site
							{
								OFFSET 0.000000 0.000000 0.000000 
							}
						}
					}
				}
			}
			JOINT RightArm
			{
				OFFSET -3.136600 1.374050 -0.404650 
				CHANNELS 3 Zrotation Yrotation Xrotation
				JOINT RightForeArm
				{
					OFFSET -5.241900 -0.000000 -0.000000 
					CHANNELS 3 Zrotation Yrotation Xrotation
					JOINT RightHand
					{
						OFFSET -3.444170 -0.000000 -0.000000 
						CHANNELS 3 Zrotation Yrotation Xrotation
						JOINT RightHandIndex1
						{
							OFFSET -0.622530 -0.000000 -0.000000 
							CHANNELS 3 Zrotation Yrotation Xrotation
							End Site
							{
								OFFSET 0.000000 0.000000 0.000000 
							}
						}
					}
				}
			}
		}
	}
}
MOTION
Frames: 9
Frame Time: 0.041667
-6.026519 17.821511 4.401585 -129.426666 -80.334671 138.052979 -5.977175 -9.797617 -24.456602 -0.030013 6.128983 15.468466 -0.854016 8.450699 9.882667 0.006200 -0.510200 -1.402000 28.074297 -0.222887 -7.839871 -3.523511 -12.516744 36.115527 -0.335541 0.539236 1.369913 -0.106300 -2.102600 5.789200 1.268862 1.406070 -5.405916 4.077039 0.799065 -1.462740 8.091202 -4.721275 2.325205 3.649400 -2.099900 5.354200 -96.644694 -38.976284 76.960131 32.275514 -48.924669 -11.244229 1.344182 3.920098 -0.658282 -7.125000 0.000000 0.000000 92.247646 30.304446 59.159090 -36.903935 48.303541 -17.583972 -0.078065 -0.242278 -40.524733 7.125000 0.000000 0.000000 
-6.170234 17.829806 4.413378 -130.394725 -80.448145 138.870229 -6.439631 -9.642499 -24.060836 -0.016636 6.206282 15.695960 -0.790622 8.155983 9.917759 0.002500 -0.324300 -0.891100 27.629683 -0.275188 -8.213512 -3.812476 -12.888635 37.435859 -0.270663 0.051280 2.042325 -0.098500 -2.023500 5.570600 1.263387 1.372100 -5.435994 4.076897 0.797183 -1.562026 8.118245 -4.733006 2.150491 3.659700 -2.108600 5.273200 -96.661887 -40.822875 76.260884 32.218743 -48.832882 -11.290860 1.351056 3.894770 -0.507764 -7.125000 0.000000 0.000000 92.288340 31.696618 58.601667 -38.388211 49.169427 -18.687529 -0.076344 -0.241814 -39.867587 7.125000 0.000000 0.000000 
-6.314448 17.839000 4.424971 -131.340017 -80.573807 139.664596 -6.909988 -9.490481 -23.642690 -0.004128 6.279324 15.911699 -0.727933 7.854866 9.932777 0.000500 -0.141500 -0.388700 27.179421 -0.319332 -8.623140 -4.115922 -13.259601 38.776472 -0.199834 -0.497876 2.703873 -0.092000 -1.956400 5.385200 1.258317 1.334643 -5.467346 4.079134 0.793636 -1.667528 8.149309 -4.742862 1.962471 3.671900 -2.116500 5.187000 -96.696328 -42.693865 75.498618 32.121741 -48.707344 -11.317752 1.356961 3.872469 -0.390444 -7.125000 0.000000 0.000000 92.329236 33.090091 57.982316 -39.995400 50.056626 -19.898872 -0.075136 -0.242673 -39.173331 7.125000 0.000000 0.000000 
-6.458962 17.849094 4.436264 -132.263566 -80.711233 140.438117 -7.385789 -9.342448 -23.201390 0.006824 6.346143 16.110280 -0.666216 7.548744 9.926163 0.000000 0.038700 0.106300 26.725301 -0.355029 -9.067161 -4.433034 -13.627313 40.131810 -0.123428 -1.102316 3.346146 -0.086900 -1.901000 5.232100 1.253734 1.293000 -5.499834 4.084091 0.787938 -1.778460 8.187138 -4.750825 1.758119 3.687400 -2.123400 5.094000 -96.744876 -44.582354 74.674223 31.984995 -48.547820 -11.324532 1.362001 3.852926 -0.306542 -7.125000 0.000000 0.000000 92.369209 34.479894 57.304140 -41.738171 50.962614 -21.230182 -0.074586 -0.245109 -38.449747 7.125000 0.000000 0.000000 
-6.603676 17.859888 4.447158 -133.171423 -80.858367 141.197763 -7.865070 -9.195912 -22.738640 0.015998 6.405348 16.287327 -0.605771 7.238540 9.897228 0.001100 0.212300 0.583200 26.269486 -0.381383 -9.544735 -4.762310 -13.989786 41.495608 -0.041776 -1.754273 3.960536 -0.082700 -1.855000 5.105100 1.249692 1.247873 -5.533623 4.091297 0.780413 -1.895199 8.230269 -4.756709 1.536103 3.705200 -2.129400 4.993800 -96.804840 -46.481932 73.789293 31.809718 -48.354960 -11.311609 1.366664 3.835766 -0.254666 -7.125000 0.000000 0.000000 92.405669 35.862876 56.570487 -43.625003 51.881761 -22.691062 -0.074727 -0.249269 -37.696338 7.125000 0.000000 0.000000 
-6.748590 17.871481 4.457751 -134.077536 -81.013917 141.959556 -8.347297 -9.049052 -22.254470 0.022620 6.455320 16.438307 -0.547071 6.927078 9.844840 0.003400 0.378700 1.040500 25.812068 -0.396639 -10.053412 -5.102193 -14.344693 42.860199 0.044357 -2.445495 4.541865 -0.079600 -1.820400 5.009600 1.246203 1.199791 -5.568376 4.101726 0.771378 -2.016286 8.278710 -4.760625 1.296091 3.725600 -2.134600 4.886400 -96.873506 -48.388171 72.848323 31.597523 -48.129510 -11.279407 1.371053 3.820856 -0.233933 -7.125000 0.000000 0.000000 92.435375 37.235467 55.785328 -45.667217 52.809075 -24.293431 -0.075769 -0.255309 -36.917725 7.125000 0.000000 0.000000 
-6.893604 17.883574 4.467945 -134.965971 -81.177936 142.707566 -8.829353 -8.903376 -21.750931 0.026846 6.495690 16.562098 -0.490502 6.615186 9.767027 0.006900 0.534800 1.469400 25.356474 -0.402445 -10.592077 -5.450395 -14.689932 44.218626 0.134827 -3.167246 5.081453 -0.077600 -1.796900 4.944800 1.243672 1.147722 -5.603559 4.114641 0.760220 -2.140601 8.331048 -4.762615 1.039243 3.747500 -2.138800 4.773400 -96.945331 -50.297462 71.852793 31.351590 -47.873170 -11.228938 1.375298 3.807612 -0.239251 -7.125000 0.000000 0.000000 92.455163 38.596880 54.952532 -47.875403 53.738167 -26.048643 -0.077811 -0.263393 -36.118461 7.125000 0.000000 0.000000 
-7.038618 17.896266 4.477639 -135.850735 -81.349491 143.455765 -9.310855 -8.757574 -21.228819 0.028232 6.525868 16.656695 -0.435854 6.303360 9.664900 0.011100 0.679300 1.866700 24.902605 -0.398116 -11.157954 -5.804691 -15.023616 45.563210 0.228951 -3.910768 5.574124 -0.076200 -1.780800 4.900300 1.241874 1.092299 -5.639369 4.130660 0.747104 -2.267730 8.389042 -4.762153 0.762962 3.772000 -2.141900 4.652900 -97.015812 -52.203634 70.807565 31.074682 -47.587569 -11.161519 1.379931 3.795664 -0.269231 -7.125000 0.000000 0.000000 92.460058 39.942511 54.076185 -50.260045 54.662435 -27.967881 -0.081120 -0.273610 -35.304730 7.125000 0.000000 0.000000 
-7.183632 17.909359 4.486834 -136.726840 -81.526962 144.201187 -9.788546 -8.610749 -20.690253 0.026910 6.545675 16.721545 -0.383009 5.991306 9.539222 0.015900 0.813200 2.235000 24.453277 -0.382719 -11.749268 -6.162446 -15.343820 46.886558 0.326562 -4.668621 6.014483 -0.075500 -1.772200 4.876500 1.241150 1.033562 -5.675382 4.149576 0.732238 -2.396246 8.450991 -4.760064 0.464855 3.797900 -2.144500 4.524300 -97.079103 -54.101342 69.713423 30.769741 -47.274715 -11.078238 1.385305 3.784493 -0.315054 -7.125000 0.000000 0.000000 92.445904 41.270592 53.156813 -52.829863 55.573953 -30.060987 -0.085620 -0.286102 -34.485375 7.125000 0.000000 0.000000 
